<svg width="64" height="64" viewBox="0 0 64 64" xmlns="http://www.w3.org/2000/svg">
  <defs>
    <radialGradient id="wax" cx="0.35" cy="0.3" r="0.85">
      <stop offset="0%" stop-color="#f06292"/>
      <stop offset="55%" stop-color="#d63e6c"/>
      <stop offset="100%" stop-color="#96143f"/>
    </radialGradient>
  </defs>
  <rect width="64" height="64" rx="14" fill="#f7f4ec"/>
  <circle cx="51.20" cy="36.39" r="4.6" fill="#a8164a"/><circle cx="44.53" cy="47.94" r="4.6" fill="#a8164a"/><circle cx="32.00" cy="52.50" r="4.6" fill="#a8164a"/><circle cx="19.47" cy="47.94" r="4.6" fill="#a8164a"/><circle cx="12.80" cy="36.39" r="4.6" fill="#a8164a"/><circle cx="15.11" cy="23.25" r="4.6" fill="#a8164a"/><circle cx="25.33" cy="14.68" r="4.6" fill="#a8164a"/><circle cx="38.67" cy="14.68" r="4.6" fill="#a8164a"/><circle cx="48.89" cy="23.25" r="4.6" fill="#a8164a"/>
  <circle cx="32" cy="33" r="20" fill="url(#wax)"/>
  <ellipse cx="25" cy="25.5" rx="7" ry="4.5" fill="#ffffff" opacity="0.22" transform="rotate(-28 25 25.5)"/>
  <circle cx="32" cy="33" r="15" fill="none" stroke="#f8dfa0" stroke-width="1.6" stroke-dasharray="0.5 3.4" stroke-linecap="round" opacity="0.92"/>
  <circle cx="30.5" cy="28.5" r="5.6" fill="none" stroke="#fff7ea" stroke-width="4.6"/>
  <path d="M 36.1 28.5 C 36.1 36 35 40.6 27.5 42.2" fill="none" stroke="#fff7ea" stroke-width="4.6" stroke-linecap="round"/>
  <polygon points="49,7 50.47,10.98 54.7,11.1 51.38,13.77 52.5,17.85 49,15.5 45.5,17.85 46.62,13.77 43.3,11.1 47.53,10.98" fill="#f6b93b"/>
</svg>